<?xml version="1.0" encoding="UTF-8"?>
<!DOCTYPE svg PUBLIC "-//W3C//DTD SVG 1.1//EN" "http://www.w3.org/Graphics/SVG/1.1/DTD/svg11.dtd">
<svg xmlns="http://www.w3.org/2000/svg" version="1.1" width="2000px" height="2000px" style="shape-rendering:geometricPrecision; text-rendering:geometricPrecision; image-rendering:optimizeQuality; fill-rule:evenodd; clip-rule:evenodd" xmlns:xlink="http://www.w3.org/1999/xlink">
<rect x="0" y="0" width="2000" height="2000" fill="#211d13"/>
<g><path fill="#211d13" stroke="#211d13" stroke-width="0.5" d="M 0,0 c 666.67,0 1333.33,0 2000,0 c 0,666.67 0,1333.33 0,2000 c -666.67,0 -1333.33,0 -2000,0 c 0,-666.67 0,-1333.33 0,-2000 Z M 1005.99,661 c 8.91,166.43 17.22,333.33 32.55,499.31 c 5.41,43.68 13.54,86.86 24.38,129.54 c 7.78,32.95 13.69,61.86 44.86,80.65 c 50.3,27.58 114.82,10.2 132.56,-47.38 c 15.63,-48.44 25.06,-96.98 31.75,-147.35 c 8.98,-49.42 30.96,-92.17 65.93,-128.25 c 6.42,-6.33 16.51,-17.42 23.5,-22.2 c 0.64,0.26 1.06,0.73 1.27,1.41 c 6.89,17.37 16.48,35.1 20.7,53.29 c 6.85,37.12 9.32,75.28 14.61,112.68 c 6.13,35.74 8.55,72.97 20.6,107.36 c 19.88,62.33 80.57,61.15 114.74,10.99 c 30.53,-42.33 48.66,-91.54 39.93,-144.25 c -16.41,-87.09 -39.86,-195.41 -107.1,-258.34 c -55.65,-50.51 -127.39,-44.78 -191.79,-15.21 c -5.02,2.39 -37.28,20.58 -38.34,12 c -4.47,-21.41 -9.14,-42.79 -14,-64.12 c -18.12,-88.28 -34.32,-177.32 -55.01,-265.01 c -9.41,-36.29 -35.81,-66.55 -75.56,-66.72 c -39.64,1.98 -63.76,30.46 -73.54,66.77 c -5.94,27.82 -11.95,56.28 -12.04,84.83 Z M 422.04,1074 c 0.3,21.89 10.08,40.98 28.92,52.44 c 15.11,8.03 27.16,15.56 37.39,29.69 c 25.26,36.97 12.39,88.01 26.59,129.73 c 19.47,56.21 43.02,110.65 70.64,163.33 c 6.36,11.08 23.2,19.58 35.35,22.15 c 23.29,5.67 39.08,-19.34 49.9,-35.88 c 13,-19.21 10.87,-41.81 10.87,-63.85 c -1.04,-61.08 -2.35,-122.04 -4.73,-183.07 c -1.08,-18.32 6.96,-29.25 25.66,-30.52 c 35.64,-3.08 71.06,-4.93 105.44,-15.76 c 68.78,-20.72 84.92,-111.78 26,-152.75 c -39.01,-26.22 -85.85,-13.9 -129.1,-9.72 c -11.25,0.29 -26.38,3.05 -30.62,-10.75 c -4.81,-22.09 -0.49,-54.89 0.25,-78.02 c 7.74,-47.47 26.79,-93.65 78.14,-105.92 c 29.34,-6.6 63.35,-4.24 93.49,-6.49 c 26.58,-1.33 52.72,-6.73 63.61,-34.05 c 12.78,-30.73 5.09,-60.74 -18.53,-83.4 c -41.88,-43.65 -99.01,-60.47 -157.61,-66.69 c -53.76,8.99 -99.07,31.41 -140.92,65.99 c -95.55,80.5 -102.06,195.07 -112.88,310.67 c -1.81,16.75 -7.07,31.92 -20.6,42.73 c -22.78,16.1 -35.4,30.91 -37.26,60.14 Z"/></g>
<g><path fill="#e5e2d8" stroke="#e5e2d8" stroke-width="0.5" d="M 1005.99,661 c 0.09,-28.55 6.1,-57.01 12.04,-84.83 c 9.78,-36.31 33.9,-64.79 73.54,-66.77 c 39.75,0.17 66.15,30.43 75.56,66.72 c 20.69,87.69 36.89,176.73 55.01,265.01 c 4.86,21.33 9.53,42.71 14,64.12 c 1.06,8.58 33.32,-9.61 38.34,-12 c 64.4,-29.57 136.14,-35.3 191.79,15.21 c 67.24,62.93 90.69,171.25 107.1,258.34 c 8.73,52.71 -9.4,101.92 -39.93,144.25 c -34.17,50.16 -94.86,51.34 -114.74,-10.99 c -12.05,-34.39 -14.47,-71.62 -20.6,-107.36 c -5.29,-37.4 -7.76,-75.56 -14.61,-112.68 c -4.22,-18.19 -13.81,-35.92 -20.7,-53.29 c -0.21,-0.68 -0.63,-1.15 -1.27,-1.41 c -6.99,4.78 -17.08,15.87 -23.5,22.2 c -34.97,36.08 -56.95,78.83 -65.93,128.25 c -6.69,50.37 -16.12,98.91 -31.75,147.35 c -17.74,57.58 -82.26,74.96 -132.56,47.38 c -31.17,-18.79 -37.08,-47.7 -44.86,-80.65 c -10.84,-42.68 -18.97,-85.86 -24.38,-129.54 c -15.33,-165.98 -23.64,-332.88 -32.55,-499.31 Z M 422.04,1074 c 1.86,-29.23 14.48,-44.04 37.26,-60.14 c 13.53,-10.81 18.79,-25.98 20.6,-42.73 c 10.82,-115.6 17.33,-230.17 112.88,-310.67 c 41.85,-34.58 87.16,-57 140.92,-65.99 c 58.6,6.22 115.73,23.04 157.61,66.69 c 23.62,22.66 31.31,52.67 18.53,83.4 c -10.89,27.32 -37.03,32.72 -63.61,34.05 c -30.14,2.25 -64.15,-0.11 -93.49,6.49 c -51.35,12.27 -70.4,58.45 -78.14,105.92 c -0.74,23.13 -5.06,55.93 -0.25,78.02 c 4.24,13.8 19.37,11.04 30.62,10.75 c 43.25,-4.18 90.09,-16.5 129.1,9.72 c 58.92,40.97 42.78,132.03 -26,152.75 c -34.38,10.83 -69.8,12.68 -105.44,15.76 c -18.7,1.27 -26.74,12.2 -25.66,30.52 c 2.38,61.03 3.69,121.99 4.73,183.07 c 0,22.04 2.13,44.64 -10.87,63.85 c -10.82,16.54 -26.61,41.55 -49.9,35.88 c -12.15,-2.57 -28.99,-11.07 -35.35,-22.15 c -27.62,-52.68 -51.17,-107.12 -70.64,-163.33 c -14.2,-41.72 -1.33,-92.76 -26.59,-129.73 c -10.23,-14.13 -22.28,-21.66 -37.39,-29.69 c -18.84,-11.46 -28.62,-30.55 -28.92,-52.44 Z"/></g>
</svg>
